<svg xmlns="http://www.w3.org/2000/svg" width="1500" height="648" viewBox="0 0 1500 648"><defs><pattern id="mat_tuff" width="24" height="24" patternUnits="userSpaceOnUse"><rect width="24" height="24" fill="#f2e7c9"/><circle cx="5" cy="6" r="1.5" fill="#36404a" stroke="none"/><circle cx="17" cy="15" r="1.5" fill="#36404a" stroke="none"/><line x1="10" y1="20" x2="15" y2="18" fill="none" stroke="#36404a" stroke-width="1.1" vector-effect="non-scaling-stroke"/></pattern><pattern id="mat_tuffaceous_mudstone" width="24" height="24" patternUnits="userSpaceOnUse"><rect width="24" height="24" fill="#ddd6be"/><line x1="0" y1="7" x2="24" y2="7" fill="none" stroke="#36404a" stroke-width="1.1" vector-effect="non-scaling-stroke"/><line x1="0" y1="18" x2="24" y2="18" fill="none" stroke="#36404a" stroke-width="1.1" vector-effect="non-scaling-stroke"/><circle cx="7" cy="13" r="1.2" fill="#36404a" stroke="none"/></pattern><pattern id="mat_volcaniclastic_silty_mudstone" width="24" height="24" patternUnits="userSpaceOnUse"><rect width="24" height="24" fill="#e7d7c7"/><line x1="0" y1="8" x2="24" y2="8" fill="none" stroke="#36404a" stroke-width="1.1" vector-effect="non-scaling-stroke"/><line x1="0" y1="17" x2="24" y2="17" fill="none" stroke="#36404a" stroke-width="1.1" vector-effect="non-scaling-stroke"/><path d="M5 4 l3 -2 l2 3 z M16 14 l4 -2 l1 4 z" fill="none" stroke="#36404a" stroke-width="1.1" vector-effect="non-scaling-stroke"/></pattern><pattern id="mat_bioclastic_tuff" width="24" height="24" patternUnits="userSpaceOnUse"><rect width="24" height="24" fill="#f0ddb5"/><path d="M4 7 q4 -5 8 0 q-4 5 -8 0 M14 18 q3 -4 7 0 q-3 4 -7 0" fill="none" stroke="#36404a" stroke-width="1.1" vector-effect="non-scaling-stroke"/><circle cx="18" cy="5" r="1" fill="#36404a" stroke="none"/></pattern><pattern id="mat_silty_mudstone_bearing" width="24" height="24" patternUnits="userSpaceOnUse"><rect width="24" height="24" fill="#d9d4c8"/><line x1="0" y1="6" x2="24" y2="6" fill="none" stroke="#36404a" stroke-width="1.1" vector-effect="non-scaling-stroke"/><line x1="0" y1="12" x2="24" y2="12" fill="none" stroke="#36404a" stroke-width="1.1" vector-effect="non-scaling-stroke"/><line x1="0" y1="18" x2="24" y2="18" fill="none" stroke="#36404a" stroke-width="1.1" vector-effect="non-scaling-stroke"/><circle cx="5" cy="9" r="0.9" fill="#36404a" stroke="none"/><circle cx="17" cy="21" r="0.9" fill="#36404a" stroke="none"/></pattern><pattern id="mat_sedimentary_tuff" width="24" height="24" patternUnits="userSpaceOnUse"><rect width="24" height="24" fill="#eadfc2"/><path d="M0 5 h9 M13 5 h11 M4 12 h12 M20 12 h4 M0 19 h5 M9 19 h15" fill="none" stroke="#36404a" stroke-width="1.1" vector-effect="non-scaling-stroke"/><circle cx="11" cy="8" r="1" fill="#36404a" stroke="none"/></pattern><pattern id="mat_argillized_tuff" width="24" height="24" patternUnits="userSpaceOnUse"><rect width="24" height="24" fill="#cfc5ae"/><path d="M2 5 q4 4 8 0 t8 0 M6 16 q4 4 8 0 t8 0" fill="none" stroke="#36404a" stroke-width="1.1" vector-effect="non-scaling-stroke"/><circle cx="4" cy="20" r="1.2" fill="#36404a" stroke="none"/></pattern><pattern id="mat_argillized_sedimentary_tuff" width="24" height="24" patternUnits="userSpaceOnUse"><rect width="24" height="24" fill="#c7bdad"/><path d="M0 6 h7 M11 6 h13 M3 18 h8 M15 18 h9 M2 12 q3 3 6 0 t6 0 t6 0" fill="none" stroke="#36404a" stroke-width="1.1" vector-effect="non-scaling-stroke"/></pattern><pattern id="mat_mudstone" width="24" height="24" patternUnits="userSpaceOnUse"><rect width="24" height="24" fill="#bbb9b3"/><line x1="0" y1="5" x2="24" y2="5" fill="none" stroke="#36404a" stroke-width="1.1" vector-effect="non-scaling-stroke"/><line x1="0" y1="12" x2="24" y2="12" fill="none" stroke="#36404a" stroke-width="1.1" vector-effect="non-scaling-stroke"/><line x1="0" y1="19" x2="24" y2="19" fill="none" stroke="#36404a" stroke-width="1.1" vector-effect="non-scaling-stroke"/></pattern><pattern id="mat_micritic_limestone" width="24" height="24" patternUnits="userSpaceOnUse"><rect width="24" height="24" fill="#cbd5d4"/><path d="M0 8 h10 v8 h14 M10 0 v8 M19 8 v8 M5 16 v8" fill="none" stroke="#36404a" stroke-width="1.1" vector-effect="non-scaling-stroke"/></pattern><pattern id="mat_argillaceous_siltstone" width="24" height="24" patternUnits="userSpaceOnUse"><rect width="24" height="24" fill="#d8cbb7"/><circle cx="4" cy="4" r="1" fill="#36404a" stroke="none"/><circle cx="12" cy="7" r="1" fill="#36404a" stroke="none"/><circle cx="20" cy="4" r="1" fill="#36404a" stroke="none"/><circle cx="7" cy="16" r="1" fill="#36404a" stroke="none"/><circle cx="17" cy="20" r="1" fill="#36404a" stroke="none"/><line x1="0" y1="12" x2="24" y2="12" fill="none" stroke="#36404a" stroke-width="1.1" vector-effect="non-scaling-stroke"/></pattern><pattern id="mat_coal" width="24" height="24" patternUnits="userSpaceOnUse"><rect width="24" height="24" fill="#30343a"/><path d="M-3 7 L7 -3 M2 14 L16 0 M8 24 L24 8 M17 27 L27 17" fill="none" stroke="#ffffff" stroke-width="1.1" vector-effect="non-scaling-stroke"/></pattern><pattern id="mat_basaltic_volcaniclastic" width="24" height="24" patternUnits="userSpaceOnUse"><rect width="24" height="24" fill="#9da7a1"/><path d="M3 4 l5 -2 l3 5 l-4 4 z M15 13 l6 -3 l2 7 l-5 4 l-4 -3 z" fill="none" stroke="#36404a" stroke-width="1.1" vector-effect="non-scaling-stroke"/></pattern><pattern id="mat_silicified_tuff" width="24" height="24" patternUnits="userSpaceOnUse"><rect width="24" height="24" fill="#e2e4d5"/><path d="M6 1 v10 M1 6 h10 M18 13 v10 M13 18 h10" fill="none" stroke="#36404a" stroke-width="1.1" vector-effect="non-scaling-stroke"/><circle cx="17" cy="5" r="1.2" fill="#36404a" stroke="none"/><circle cx="6" cy="18" r="1.2" fill="#36404a" stroke="none"/></pattern><pattern id="mat_carbonaceous_mudstone_coal_laminae" width="24" height="24" patternUnits="userSpaceOnUse"><rect width="24" height="24" fill="#6c6c69"/><line x1="0" y1="5" x2="24" y2="5" fill="none" stroke="#ffffff" stroke-width="2.4" vector-effect="non-scaling-stroke"/><line x1="0" y1="12" x2="24" y2="12" fill="none" stroke="#ffffff" stroke-width="0.8" vector-effect="non-scaling-stroke"/><line x1="0" y1="19" x2="24" y2="19" fill="none" stroke="#ffffff" stroke-width="2.4" vector-effect="non-scaling-stroke"/></pattern><pattern id="mat_silty_mudstone" width="24" height="24" patternUnits="userSpaceOnUse"><rect width="24" height="24" fill="#c8c1b5"/><line x1="0" y1="7" x2="24" y2="7" fill="none" stroke="#36404a" stroke-width="1.1" vector-effect="non-scaling-stroke"/><line x1="0" y1="17" x2="24" y2="17" fill="none" stroke="#36404a" stroke-width="1.1" vector-effect="non-scaling-stroke"/><circle cx="4" cy="12" r="1" fill="#36404a" stroke="none"/><circle cx="12" cy="3" r="1" fill="#36404a" stroke="none"/><circle cx="20" cy="22" r="1" fill="#36404a" stroke="none"/></pattern><pattern id="mat_pending" width="12" height="12" patternUnits="userSpaceOnUse"><rect width="12" height="12" fill="#fff2cc"/><path d="M-3 3 L3 -3 M0 12 L12 0 M9 15 L15 9" stroke="#9b7b2d" stroke-width="1"/></pattern><clipPath id="detail-window"><rect x="84.000000" y="104.000000" width="1332.000000" height="399.773875"/></clipPath></defs><rect width="100%" height="100%" fill="#ffffff"/><style>text{font-family:Noto Sans CJK SC, Microsoft YaHei, Arial, sans-serif;fill:#18212b;font-size:15px}.small{font-size:13px;fill:#596675}.survey{stroke:#15202b;stroke-width:2;fill:none}.leader{stroke:#596675;stroke-width:.8;fill:none}.scale line{stroke:#18212b;stroke-width:2}</style><text x="84.000" y="42.000" class="" text-anchor="start" style="font-size:22px;font-weight:700">最密集区自动详图</text><text x="84.000" y="70.000" class="small" text-anchor="start" >范围 X=240.283–345.738 m；主图 1 px=0.359864 m，详图 1 px=0.07917 m，线性放大 4.55×；详图水平/高程仍为同尺度。</text><g clip-path="url(#detail-window)"><polygon points="-501.613696,23.810733 -292.112571,50.216751 190.560000,142.337589 190.560000,166.337589 -292.112571,74.216751 -501.613696,47.810733" fill="url(#mat_tuffaceous_mudstone)" stroke="#a73535" stroke-width=".8" data-interval="I0011" data-node-sequence="16,17,18"/><polygon points="190.560000,142.337589 328.466449,168.657829 328.466449,192.657829 190.560000,166.337589" fill="url(#mat_carbonaceous_mudstone_coal_laminae)" stroke="#a73535" stroke-width=".8" data-interval="I0012" data-node-sequence="18,19"/><polygon points="328.466449,168.657829 454.880693,192.784715 533.070825,241.676233 533.070825,265.676233 454.880693,216.784715 328.466449,192.657829" fill="url(#mat_tuffaceous_mudstone)" stroke="#a73535" stroke-width=".8" data-interval="I0013" data-node-sequence="19,20,21"/><polygon points="533.070825,241.676233 542.844592,247.787673 542.844592,271.787673 533.070825,265.676233" fill="url(#mat_carbonaceous_mudstone_coal_laminae)" stroke="#a73535" stroke-width=".8" data-interval="I0014" data-node-sequence="21,22"/><polygon points="542.844592,247.787673 572.165891,266.121992 629.650346,301.526671 629.650346,325.526671 572.165891,290.121992 542.844592,271.787673" fill="url(#mat_tuffaceous_mudstone)" stroke="#a73535" stroke-width=".8" data-interval="I0015" data-node-sequence="22,23,24"/><polygon points="629.650346,301.526671 660.196798,309.405080 660.196798,333.405080 629.650346,325.526671" fill="url(#mat_volcaniclastic_silty_mudstone)" stroke="#a73535" stroke-width=".8" data-interval="I0016" data-node-sequence="24,25"/><polygon points="660.196798,309.405080 681.579315,314.919967 681.579315,338.919967 660.196798,333.405080" fill="url(#mat_argillized_tuff)" stroke="#a73535" stroke-width=".8" data-interval="I0017" data-node-sequence="25,26"/><polygon points="681.579315,314.919967 762.018305,335.666444 762.018305,359.666444 681.579315,338.919967" fill="url(#mat_basaltic_volcaniclastic)" stroke="#a73535" stroke-width=".8" data-interval="I0018" data-node-sequence="26,27"/><polygon points="762.018305,335.666444 904.568414,372.432353 904.568414,396.432353 762.018305,359.666444" fill="url(#mat_silty_mudstone)" stroke="#a73535" stroke-width=".8" data-interval="I0019" data-node-sequence="27,28"/><polygon points="904.568414,372.432353 1199.850782,448.590307 1359.876458,465.754219 1359.876458,489.754219 1199.850782,472.590307 904.568414,396.432353" fill="url(#mat_tuffaceous_mudstone)" stroke="#a73535" stroke-width=".8" data-interval="I0020" data-node-sequence="28,29,30"/><polygon points="1359.876458,465.754219 1778.405150,510.644450 1834.710023,516.148779 1867.583604,563.419234 1867.583604,587.419234 1834.710023,540.148779 1778.405150,534.644450 1359.876458,489.754219" fill="url(#mat_argillaceous_siltstone)" stroke="#a73535" stroke-width=".8" data-interval="I0021" data-node-sequence="30,31,32,33"/><polyline points="-2951.024752,-335.115689 -2415.153222,-296.876153 -2091.468861,-277.573306 -2065.379117,-272.068977 -1908.840653,-239.043004 -1878.892703,-235.740406 -1643.302166,-209.759974 -1549.465257,-199.411836 -1422.911800,-170.898243 -1167.857908,-113.432387 -1039.357475,-84.480123 -984.842139,-72.197345 -979.053371,-70.658011 -898.010618,-49.107336 -805.390328,-24.477994 -679.689653,-8.634383 -501.613696,13.810733 -292.112571,40.216751 190.560000,132.337589 328.466449,158.657829 454.880693,182.784715 533.070825,231.676233 542.844592,237.787673 572.165891,256.121992 629.650346,291.526671 660.196798,299.405080 681.579315,304.919967 762.018305,325.666444 904.568414,362.432353 1199.850782,438.590307 1359.876458,455.754219 1778.405150,500.644450 1834.710023,506.148779 1867.583604,553.419234 1955.246487,679.473778 2052.078704,749.105388 2076.286758,766.513290 2221.535083,870.960704 2269.951191,905.776508 2399.245239,1033.637747 2557.151901,1084.084873 2708.193056,1132.338645 2871.561880,1229.159047 3103.520702,1274.864395" class="survey" data-node-count="44"/><circle cx="-2951.024752" cy="-335.115689" r="2.4" fill="#15202b" data-node="0"/><circle cx="-2415.153222" cy="-296.876153" r="2.4" fill="#15202b" data-node="1"/><circle cx="-2091.468861" cy="-277.573306" r="2.4" fill="#15202b" data-node="2"/><circle cx="-2065.379117" cy="-272.068977" r="2.4" fill="#15202b" data-node="3"/><circle cx="-1908.840653" cy="-239.043004" r="2.4" fill="#15202b" data-node="4"/><circle cx="-1878.892703" cy="-235.740406" r="2.4" fill="#15202b" data-node="5"/><circle cx="-1643.302166" cy="-209.759974" r="2.4" fill="#15202b" data-node="6"/><circle cx="-1549.465257" cy="-199.411836" r="2.4" fill="#15202b" data-node="7"/><circle cx="-1422.911800" cy="-170.898243" r="2.4" fill="#15202b" data-node="8"/><circle cx="-1167.857908" cy="-113.432387" r="2.4" fill="#15202b" data-node="9"/><circle cx="-1039.357475" cy="-84.480123" r="2.4" fill="#15202b" data-node="10"/><circle cx="-984.842139" cy="-72.197345" r="2.4" fill="#15202b" data-node="11"/><circle cx="-979.053371" cy="-70.658011" r="2.4" fill="#15202b" data-node="12"/><circle cx="-898.010618" cy="-49.107336" r="2.4" fill="#15202b" data-node="13"/><circle cx="-805.390328" cy="-24.477994" r="2.4" fill="#15202b" data-node="14"/><circle cx="-679.689653" cy="-8.634383" r="2.4" fill="#15202b" data-node="15"/><circle cx="-501.613696" cy="13.810733" r="2.4" fill="#15202b" data-node="16"/><circle cx="-292.112571" cy="40.216751" r="2.4" fill="#15202b" data-node="17"/><circle cx="190.560000" cy="132.337589" r="2.4" fill="#15202b" data-node="18"/><circle cx="328.466449" cy="158.657829" r="2.4" fill="#15202b" data-node="19"/><circle cx="454.880693" cy="182.784715" r="2.4" fill="#15202b" data-node="20"/><circle cx="533.070825" cy="231.676233" r="2.4" fill="#15202b" data-node="21"/><circle cx="542.844592" cy="237.787673" r="2.4" fill="#15202b" data-node="22"/><circle cx="572.165891" cy="256.121992" r="2.4" fill="#15202b" data-node="23"/><circle cx="629.650346" cy="291.526671" r="2.4" fill="#15202b" data-node="24"/><circle cx="660.196798" cy="299.405080" r="2.4" fill="#15202b" data-node="25"/><circle cx="681.579315" cy="304.919967" r="2.4" fill="#15202b" data-node="26"/><circle cx="762.018305" cy="325.666444" r="2.4" fill="#15202b" data-node="27"/><circle cx="904.568414" cy="362.432353" r="2.4" fill="#15202b" data-node="28"/><circle cx="1199.850782" cy="438.590307" r="2.4" fill="#15202b" data-node="29"/><circle cx="1359.876458" cy="455.754219" r="2.4" fill="#15202b" data-node="30"/><circle cx="1778.405150" cy="500.644450" r="2.4" fill="#15202b" data-node="31"/><circle cx="1834.710023" cy="506.148779" r="2.4" fill="#15202b" data-node="32"/><circle cx="1867.583604" cy="553.419234" r="2.4" fill="#15202b" data-node="33"/><circle cx="1955.246487" cy="679.473778" r="2.4" fill="#15202b" data-node="34"/><circle cx="2052.078704" cy="749.105388" r="2.4" fill="#15202b" data-node="35"/><circle cx="2076.286758" cy="766.513290" r="2.4" fill="#15202b" data-node="36"/><circle cx="2221.535083" cy="870.960704" r="2.4" fill="#15202b" data-node="37"/><circle cx="2269.951191" cy="905.776508" r="2.4" fill="#15202b" data-node="38"/><circle cx="2399.245239" cy="1033.637747" r="2.4" fill="#15202b" data-node="39"/><circle cx="2557.151901" cy="1084.084873" r="2.4" fill="#15202b" data-node="40"/><circle cx="2708.193056" cy="1132.338645" r="2.4" fill="#15202b" data-node="41"/><circle cx="2871.561880" cy="1229.159047" r="2.4" fill="#15202b" data-node="42"/><circle cx="3103.520702" cy="1274.864395" r="2.4" fill="#15202b" data-node="43"/></g><path d="M 137.280 166.338 L 137.280 525.774" class="leader" data-interval="I0011"/><path d="M 259.513 166.338 L 259.513 525.774" class="leader" data-interval="I0012"/><path d="M 430.769 216.785 L 430.769 525.774" class="leader" data-interval="I0013"/><path d="M 537.958 265.676 L 537.958 525.774" class="leader" data-interval="I0014"/><path d="M 586.247 290.122 L 586.247 525.774" class="leader" data-interval="I0015"/><path d="M 644.924 325.527 L 644.924 525.774" class="leader" data-interval="I0016"/><path d="M 670.888 333.405 L 670.888 546.774" class="leader" data-interval="I0017"/><path d="M 721.799 338.920 L 721.799 525.774" class="leader" data-interval="I0018"/><path d="M 833.293 359.666 L 833.293 525.774" class="leader" data-interval="I0019"/><path d="M 1132.222 472.590 L 1132.222 525.774" class="leader" data-interval="I0020"/><path d="M 1387.938 489.754 L 1387.938 525.774" class="leader" data-interval="I0021"/><rect x="118.190" y="513.774" width="38.180" height="20.000" rx="2.5" fill="#ffffff" fill-opacity=".94"/><text x="137.280" y="529.774" class="small" text-anchor="middle" data-interval="I0011">C10</text><rect x="240.423" y="513.774" width="38.180" height="20.000" rx="2.5" fill="#ffffff" fill-opacity=".94"/><text x="259.513" y="529.774" class="small" text-anchor="middle" data-interval="I0012">C11</text><rect x="411.679" y="513.774" width="38.180" height="20.000" rx="2.5" fill="#ffffff" fill-opacity=".94"/><text x="430.769" y="529.774" class="small" text-anchor="middle" data-interval="I0013">C12</text><rect x="518.868" y="513.774" width="38.180" height="20.000" rx="2.5" fill="#ffffff" fill-opacity=".94"/><text x="537.958" y="529.774" class="small" text-anchor="middle" data-interval="I0014">C13</text><rect x="567.157" y="513.774" width="38.180" height="20.000" rx="2.5" fill="#ffffff" fill-opacity=".94"/><text x="586.247" y="529.774" class="small" text-anchor="middle" data-interval="I0015">C14</text><rect x="625.834" y="513.774" width="38.180" height="20.000" rx="2.5" fill="#ffffff" fill-opacity=".94"/><text x="644.924" y="529.774" class="small" text-anchor="middle" data-interval="I0016">C15</text><rect x="651.798" y="534.774" width="38.180" height="20.000" rx="2.5" fill="#ffffff" fill-opacity=".94"/><text x="670.888" y="550.774" class="small" text-anchor="middle" data-interval="I0017">C16</text><rect x="702.709" y="513.774" width="38.180" height="20.000" rx="2.5" fill="#ffffff" fill-opacity=".94"/><text x="721.799" y="529.774" class="small" text-anchor="middle" data-interval="I0018">C17</text><rect x="814.203" y="513.774" width="38.180" height="20.000" rx="2.5" fill="#ffffff" fill-opacity=".94"/><text x="833.293" y="529.774" class="small" text-anchor="middle" data-interval="I0019">C18</text><rect x="1113.132" y="513.774" width="38.180" height="20.000" rx="2.5" fill="#ffffff" fill-opacity=".94"/><text x="1132.222" y="529.774" class="small" text-anchor="middle" data-interval="I0020">C19</text><rect x="1368.848" y="513.774" width="38.180" height="20.000" rx="2.5" fill="#ffffff" fill-opacity=".94"/><text x="1387.938" y="529.774" class="small" text-anchor="middle" data-interval="I0021">C20</text><g class="scale"><line x1="84.000" y1="613.774" x2="210.310" y2="613.774"/><line x1="84.000" y1="608.774" x2="84.000" y2="618.774"/><line x1="210.310" y1="608.774" x2="210.310" y2="618.774"/><text x="147.155" y="605.774" class="small" text-anchor="middle" >10 m</text></g><text x="314.000" y="618.774" class="small" text-anchor="start" >岩性宽度未扩大；层号为源数据层号，完整名称见主图索引及 appendix.html。</text></svg>