<svg xmlns="http://www.w3.org/2000/svg" width="1500" height="805" viewBox="0 0 1500 805"><defs><pattern id="mat_tuff" width="24" height="24" patternUnits="userSpaceOnUse"><rect width="24" height="24" fill="#f2e7c9"/><circle cx="5" cy="6" r="1.5" fill="#36404a" stroke="none"/><circle cx="17" cy="15" r="1.5" fill="#36404a" stroke="none"/><line x1="10" y1="20" x2="15" y2="18" fill="none" stroke="#36404a" stroke-width="1.1" vector-effect="non-scaling-stroke"/></pattern><pattern id="mat_tuffaceous_mudstone" width="24" height="24" patternUnits="userSpaceOnUse"><rect width="24" height="24" fill="#ddd6be"/><line x1="0" y1="7" x2="24" y2="7" fill="none" stroke="#36404a" stroke-width="1.1" vector-effect="non-scaling-stroke"/><line x1="0" y1="18" x2="24" y2="18" fill="none" stroke="#36404a" stroke-width="1.1" vector-effect="non-scaling-stroke"/><circle cx="7" cy="13" r="1.2" fill="#36404a" stroke="none"/></pattern><pattern id="mat_volcaniclastic_silty_mudstone" width="24" height="24" patternUnits="userSpaceOnUse"><rect width="24" height="24" fill="#e7d7c7"/><line x1="0" y1="8" x2="24" y2="8" fill="none" stroke="#36404a" stroke-width="1.1" vector-effect="non-scaling-stroke"/><line x1="0" y1="17" x2="24" y2="17" fill="none" stroke="#36404a" stroke-width="1.1" vector-effect="non-scaling-stroke"/><path d="M5 4 l3 -2 l2 3 z M16 14 l4 -2 l1 4 z" fill="none" stroke="#36404a" stroke-width="1.1" vector-effect="non-scaling-stroke"/></pattern><pattern id="mat_bioclastic_tuff" width="24" height="24" patternUnits="userSpaceOnUse"><rect width="24" height="24" fill="#f0ddb5"/><path d="M4 7 q4 -5 8 0 q-4 5 -8 0 M14 18 q3 -4 7 0 q-3 4 -7 0" fill="none" stroke="#36404a" stroke-width="1.1" vector-effect="non-scaling-stroke"/><circle cx="18" cy="5" r="1" fill="#36404a" stroke="none"/></pattern><pattern id="mat_silty_mudstone_bearing" width="24" height="24" patternUnits="userSpaceOnUse"><rect width="24" height="24" fill="#d9d4c8"/><line x1="0" y1="6" x2="24" y2="6" fill="none" stroke="#36404a" stroke-width="1.1" vector-effect="non-scaling-stroke"/><line x1="0" y1="12" x2="24" y2="12" fill="none" stroke="#36404a" stroke-width="1.1" vector-effect="non-scaling-stroke"/><line x1="0" y1="18" x2="24" y2="18" fill="none" stroke="#36404a" stroke-width="1.1" vector-effect="non-scaling-stroke"/><circle cx="5" cy="9" r="0.9" fill="#36404a" stroke="none"/><circle cx="17" cy="21" r="0.9" fill="#36404a" stroke="none"/></pattern><pattern id="mat_sedimentary_tuff" width="24" height="24" patternUnits="userSpaceOnUse"><rect width="24" height="24" fill="#eadfc2"/><path d="M0 5 h9 M13 5 h11 M4 12 h12 M20 12 h4 M0 19 h5 M9 19 h15" fill="none" stroke="#36404a" stroke-width="1.1" vector-effect="non-scaling-stroke"/><circle cx="11" cy="8" r="1" fill="#36404a" stroke="none"/></pattern><pattern id="mat_argillized_tuff" width="24" height="24" patternUnits="userSpaceOnUse"><rect width="24" height="24" fill="#cfc5ae"/><path d="M2 5 q4 4 8 0 t8 0 M6 16 q4 4 8 0 t8 0" fill="none" stroke="#36404a" stroke-width="1.1" vector-effect="non-scaling-stroke"/><circle cx="4" cy="20" r="1.2" fill="#36404a" stroke="none"/></pattern><pattern id="mat_argillized_sedimentary_tuff" width="24" height="24" patternUnits="userSpaceOnUse"><rect width="24" height="24" fill="#c7bdad"/><path d="M0 6 h7 M11 6 h13 M3 18 h8 M15 18 h9 M2 12 q3 3 6 0 t6 0 t6 0" fill="none" stroke="#36404a" stroke-width="1.1" vector-effect="non-scaling-stroke"/></pattern><pattern id="mat_mudstone" width="24" height="24" patternUnits="userSpaceOnUse"><rect width="24" height="24" fill="#bbb9b3"/><line x1="0" y1="5" x2="24" y2="5" fill="none" stroke="#36404a" stroke-width="1.1" vector-effect="non-scaling-stroke"/><line x1="0" y1="12" x2="24" y2="12" fill="none" stroke="#36404a" stroke-width="1.1" vector-effect="non-scaling-stroke"/><line x1="0" y1="19" x2="24" y2="19" fill="none" stroke="#36404a" stroke-width="1.1" vector-effect="non-scaling-stroke"/></pattern><pattern id="mat_micritic_limestone" width="24" height="24" patternUnits="userSpaceOnUse"><rect width="24" height="24" fill="#cbd5d4"/><path d="M0 8 h10 v8 h14 M10 0 v8 M19 8 v8 M5 16 v8" fill="none" stroke="#36404a" stroke-width="1.1" vector-effect="non-scaling-stroke"/></pattern><pattern id="mat_argillaceous_siltstone" width="24" height="24" patternUnits="userSpaceOnUse"><rect width="24" height="24" fill="#d8cbb7"/><circle cx="4" cy="4" r="1" fill="#36404a" stroke="none"/><circle cx="12" cy="7" r="1" fill="#36404a" stroke="none"/><circle cx="20" cy="4" r="1" fill="#36404a" stroke="none"/><circle cx="7" cy="16" r="1" fill="#36404a" stroke="none"/><circle cx="17" cy="20" r="1" fill="#36404a" stroke="none"/><line x1="0" y1="12" x2="24" y2="12" fill="none" stroke="#36404a" stroke-width="1.1" vector-effect="non-scaling-stroke"/></pattern><pattern id="mat_coal" width="24" height="24" patternUnits="userSpaceOnUse"><rect width="24" height="24" fill="#30343a"/><path d="M-3 7 L7 -3 M2 14 L16 0 M8 24 L24 8 M17 27 L27 17" fill="none" stroke="#ffffff" stroke-width="1.1" vector-effect="non-scaling-stroke"/></pattern><pattern id="mat_basaltic_volcaniclastic" width="24" height="24" patternUnits="userSpaceOnUse"><rect width="24" height="24" fill="#9da7a1"/><path d="M3 4 l5 -2 l3 5 l-4 4 z M15 13 l6 -3 l2 7 l-5 4 l-4 -3 z" fill="none" stroke="#36404a" stroke-width="1.1" vector-effect="non-scaling-stroke"/></pattern><pattern id="mat_silicified_tuff" width="24" height="24" patternUnits="userSpaceOnUse"><rect width="24" height="24" fill="#e2e4d5"/><path d="M6 1 v10 M1 6 h10 M18 13 v10 M13 18 h10" fill="none" stroke="#36404a" stroke-width="1.1" vector-effect="non-scaling-stroke"/><circle cx="17" cy="5" r="1.2" fill="#36404a" stroke="none"/><circle cx="6" cy="18" r="1.2" fill="#36404a" stroke="none"/></pattern><pattern id="mat_carbonaceous_mudstone_coal_laminae" width="24" height="24" patternUnits="userSpaceOnUse"><rect width="24" height="24" fill="#6c6c69"/><line x1="0" y1="5" x2="24" y2="5" fill="none" stroke="#ffffff" stroke-width="2.4" vector-effect="non-scaling-stroke"/><line x1="0" y1="12" x2="24" y2="12" fill="none" stroke="#ffffff" stroke-width="0.8" vector-effect="non-scaling-stroke"/><line x1="0" y1="19" x2="24" y2="19" fill="none" stroke="#ffffff" stroke-width="2.4" vector-effect="non-scaling-stroke"/></pattern><pattern id="mat_silty_mudstone" width="24" height="24" patternUnits="userSpaceOnUse"><rect width="24" height="24" fill="#c8c1b5"/><line x1="0" y1="7" x2="24" y2="7" fill="none" stroke="#36404a" stroke-width="1.1" vector-effect="non-scaling-stroke"/><line x1="0" y1="17" x2="24" y2="17" fill="none" stroke="#36404a" stroke-width="1.1" vector-effect="non-scaling-stroke"/><circle cx="4" cy="12" r="1" fill="#36404a" stroke="none"/><circle cx="12" cy="3" r="1" fill="#36404a" stroke="none"/><circle cx="20" cy="22" r="1" fill="#36404a" stroke="none"/></pattern><pattern id="mat_pending" width="12" height="12" patternUnits="userSpaceOnUse"><rect width="12" height="12" fill="#fff2cc"/><path d="M-3 3 L3 -3 M0 12 L12 0 M9 15 L15 9" stroke="#9b7b2d" stroke-width="1"/></pattern><clipPath id="detail-window"><rect x="84.000000" y="104.000000" width="1332.000000" height="557.354186"/></clipPath></defs><rect width="100%" height="100%" fill="#ffffff"/><style>text{font-family:Noto Sans CJK SC, Microsoft YaHei, Arial, sans-serif;fill:#18212b;font-size:15px}.small{font-size:13px;fill:#596675}.survey{stroke:#15202b;stroke-width:2;fill:none}.derived-contact{stroke:#a73535;stroke-width:1.1;stroke-dasharray:5 3;fill:none}.leader{stroke:#596675;stroke-width:.8;fill:none}.scale line{stroke:#18212b;stroke-width:2}</style><text x="84.000" y="42.000" class="" text-anchor="start" style="font-size:22px;font-weight:700">最密集区数据核验详图</text><text x="84.000" y="70.000" class="small" text-anchor="start" >范围 X=240.283–345.738 m；主图 1 px=0.359864 m，详图 1 px=0.07917 m，线性放大 4.55×；详图水平/高程仍为同尺度。</text><g clip-path="url(#detail-window)"><polygon points="-501.613696,112.000000 -501.613696,154.873978 -657.926962,135.171883" fill="url(#mat_tuffaceous_mudstone)" stroke="none" data-interval="I0011" data-polygon-index="0" data-world-points="[[193.92031723098296,-27.62456800287621],[193.92031723098296,-31.01890860555193],[181.54496767576003,-29.45909021395388]]"/><polygon points="-501.613696,112.000000 -292.112571,138.406018 -292.112571,181.279996 -501.613696,154.873978" fill="url(#mat_tuffaceous_mudstone)" stroke="none" data-interval="I0011" data-polygon-index="1" data-world-points="[[193.92031723098296,-27.62456800287621],[210.50655930089744,-29.715137268229277],[210.50655930089744,-33.109477870904996],[193.92031723098296,-31.01890860555193]]"/><polygon points="-292.112571,138.406018 190.560000,230.526857 53.082551,247.162472 -292.112571,181.279996" fill="url(#mat_tuffaceous_mudstone)" stroke="none" data-interval="I0011" data-polygon-index="2" data-world-points="[[210.50655930089744,-29.715137268229277],[248.71983419152048,-37.008360730240355],[237.8357196538151,-38.32540542627586],[210.50655930089744,-33.109477870904996]]"/><polygon points="190.560000,230.526857 190.560000,273.400835 53.082551,247.162472" fill="url(#mat_carbonaceous_mudstone_coal_laminae)" stroke="none" data-interval="I0012" data-polygon-index="0" data-world-points="[[248.71983419152048,-37.008360730240355],[248.71983419152048,-40.402701332916074],[237.8357196538151,-38.32540542627586]]"/><polygon points="190.560000,230.526857 328.466449,256.847096 204.949785,276.147208 190.560000,273.400835" fill="url(#mat_carbonaceous_mudstone_coal_laminae)" stroke="none" data-interval="I0012" data-polygon-index="1" data-world-points="[[248.71983419152048,-37.008360730240355],[259.6379127316985,-39.092138862243516],[249.85907610064646,-40.62013220855617],[248.71983419152048,-40.402701332916074]]"/><polygon points="328.466449,256.847096 328.466449,299.721074 204.949785,276.147208" fill="url(#mat_tuffaceous_mudstone)" stroke="none" data-interval="I0013" data-polygon-index="0" data-world-points="[[259.6379127316985,-39.092138862243516],[259.6379127316985,-42.486479464919235],[249.85907610064646,-40.62013220855617]]"/><polygon points="328.466449,256.847096 454.880693,280.973982 454.880693,323.847960 328.466449,299.721074" fill="url(#mat_tuffaceous_mudstone)" stroke="none" data-interval="I0013" data-polygon-index="1" data-world-points="[[259.6379127316985,-39.092138862243516],[269.6461513935284,-41.00226881657975],[269.6461513935284,-44.39660941925547],[259.6379127316985,-42.486479464919235]]"/><polygon points="454.880693,280.973982 533.070825,329.865500 489.064608,345.222825 454.880693,323.847960" fill="url(#mat_tuffaceous_mudstone)" stroke="none" data-interval="I0013" data-polygon-index="2" data-world-points="[[269.6461513935284,-41.00226881657975],[275.8364783024846,-44.873019146174435],[272.3524980940573,-46.08886130467909],[269.6461513935284,-44.39660941925547]]"/><polygon points="533.070825,329.865500 533.070825,338.725932 495.551156,349.278799 489.064608,345.222825" fill="url(#mat_carbonaceous_mudstone_coal_laminae)" stroke="none" data-interval="I0014" data-polygon-index="0" data-world-points="[[275.8364783024846,-44.873019146174435],[275.8364783024846,-45.574501117661114],[272.8660393025814,-46.40997355470891],[272.3524980940573,-46.08886130467909]]"/><polygon points="533.070825,338.725932 533.070825,329.865500 542.844592,335.976940" fill="url(#mat_carbonaceous_mudstone_coal_laminae)" stroke="none" data-interval="I0014" data-polygon-index="1" data-world-points="[[275.8364783024846,-45.574501117661114],[275.8364783024846,-44.873019146174435],[276.6102691661041,-45.35686293737377]]"/><polygon points="533.070825,338.725932 533.070825,372.739478 495.551156,349.278799" fill="url(#mat_tuffaceous_mudstone)" stroke="none" data-interval="I0015" data-polygon-index="0" data-world-points="[[275.8364783024846,-45.574501117661114],[275.8364783024846,-48.267359748850154],[272.8660393025814,-46.40997355470892]]"/><polygon points="533.070825,338.725932 542.844592,335.976940 542.844592,378.850918 533.070825,372.739478" fill="url(#mat_tuffaceous_mudstone)" stroke="none" data-interval="I0015" data-polygon-index="1" data-world-points="[[275.8364783024846,-45.574501117661114],[276.6102691661041,-45.35686293737377],[276.6102691661041,-48.75120354004949],[275.8364783024846,-48.267359748850154]]"/><polygon points="542.844592,335.976940 572.165891,354.311259 572.165891,397.185237 542.844592,378.850918" fill="url(#mat_tuffaceous_mudstone)" stroke="none" data-interval="I0015" data-polygon-index="2" data-world-points="[[276.6102691661041,-45.35686293737377],[278.93164175696273,-46.80839431097178],[278.93164175696273,-50.2027349136475],[276.6102691661041,-48.75120354004949]]"/><polygon points="572.165891,354.311259 629.650346,389.715939 574.522284,398.636540 572.165891,397.185237" fill="url(#mat_tuffaceous_mudstone)" stroke="none" data-interval="I0015" data-polygon-index="3" data-world-points="[[278.93164175696273,-46.80839431097178],[283.4826964920075,-49.61138920929017],[279.1181978229868,-50.31763480647655],[278.93164175696273,-50.2027349136475]]"/><polygon points="629.650346,389.715939 629.650346,402.267226 590.212669,408.300249 574.522284,398.636540" fill="url(#mat_volcaniclastic_silty_mudstone)" stroke="none" data-interval="I0016" data-polygon-index="0" data-world-points="[[283.4826964920075,-49.61138920929017],[283.4826964920075,-50.60507687097765],[280.3604084385356,-51.0827124029309],[279.1181978229868,-50.31763480647655]]"/><polygon points="629.650346,402.267226 629.650346,389.715939 660.196798,397.594348" fill="url(#mat_volcaniclastic_silty_mudstone)" stroke="none" data-interval="I0016" data-polygon-index="1" data-world-points="[[283.4826964920075,-50.60507687097765],[283.4826964920075,-49.61138920929017],[285.90106462511784,-50.235124281743445]]"/><polygon points="629.650346,402.267226 629.650346,406.720630 591.909480,409.345315 590.212669,408.300249" fill="url(#mat_argillized_tuff)" stroke="none" data-interval="I0017" data-polygon-index="0" data-world-points="[[283.4826964920075,-50.60507687097765],[283.4826964920075,-50.95765365381525],[280.49474524139373,-51.16545044828293],[280.3604084385356,-51.08271240293091]]"/><polygon points="629.650346,406.720630 629.650346,402.267226 660.196798,397.594348 660.196798,404.596279" fill="url(#mat_argillized_tuff)" stroke="none" data-interval="I0017" data-polygon-index="1" data-world-points="[[283.4826964920075,-50.95765365381525],[283.4826964920075,-50.60507687097765],[285.90106462511784,-50.235124281743445],[285.90106462511784,-50.789468464783184]]"/><polygon points="660.196798,404.596279 660.196798,397.594348 681.579315,403.109234" fill="url(#mat_argillized_tuff)" stroke="none" data-interval="I0017" data-polygon-index="2" data-world-points="[[285.90106462511784,-50.789468464783184],[285.90106462511784,-50.235124281743445],[287.59392231829503,-50.67173883246074]]"/><polygon points="629.650346,406.720630 629.650346,432.589917 591.909480,409.345315" fill="url(#mat_basaltic_volcaniclastic)" stroke="none" data-interval="I0018" data-polygon-index="0" data-world-points="[[283.4826964920075,-50.95765365381526],[283.4826964920075,-53.005729811965885],[280.49474524139373,-51.16545044828293]]"/><polygon points="629.650346,406.720630 660.196798,404.596279 660.196798,431.332583 632.625258,433.357193 629.650346,432.589917" fill="url(#mat_basaltic_volcaniclastic)" stroke="none" data-interval="I0018" data-polygon-index="1" data-world-points="[[283.4826964920075,-50.95765365381526],[285.90106462511784,-50.789468464783184],[285.90106462511784,-52.90618645464219],[283.7182207566298,-53.066475213895146],[283.4826964920075,-53.005729811965885]]"/><polygon points="660.196798,431.332583 660.196798,404.596279 681.579315,403.109234 681.579315,429.762440" fill="url(#mat_basaltic_volcaniclastic)" stroke="none" data-interval="I0018" data-polygon-index="2" data-world-points="[[285.90106462511784,-52.90618645464219],[285.90106462511784,-50.789468464783184],[287.59392231829503,-50.67173883246074],[287.59392231829503,-52.78187794905076]]"/><polygon points="681.579315,429.762440 681.579315,403.109234 762.018305,423.855711" fill="url(#mat_basaltic_volcaniclastic)" stroke="none" data-interval="I0018" data-polygon-index="3" data-world-points="[[287.59392231829503,-52.78187794905076],[287.59392231829503,-50.67173883246074],[293.96229173548545,-52.31424118992104]]"/><polygon points="660.196798,431.332583 660.196798,440.468326 632.625258,433.357193" fill="url(#mat_silty_mudstone)" stroke="none" data-interval="I0019" data-polygon-index="0" data-world-points="[[285.90106462511784,-52.90618645464219],[285.90106462511784,-53.629464884419164],[283.7182207566298,-53.066475213895146]]"/><polygon points="660.196798,431.332583 681.579315,429.762440 681.579315,445.983212 660.196798,440.468326" fill="url(#mat_silty_mudstone)" stroke="none" data-interval="I0019" data-polygon-index="1" data-world-points="[[285.90106462511784,-52.90618645464219],[287.59392231829503,-52.78187794905076],[287.59392231829503,-54.06607943513646],[285.90106462511784,-53.629464884419164]]"/><polygon points="681.579315,429.762440 762.018305,423.855711 762.018305,466.729689 681.579315,445.983212" fill="url(#mat_silty_mudstone)" stroke="none" data-interval="I0019" data-polygon-index="2" data-world-points="[[287.59392231829503,-52.78187794905076],[293.96229173548545,-52.31424118992104],[293.96229173548545,-55.70858179259676],[287.59392231829503,-54.06607943513646]]"/><polygon points="762.018305,423.855711 904.568414,460.621620 765.192991,467.548491 762.018305,466.729689" fill="url(#mat_silty_mudstone)" stroke="none" data-interval="I0019" data-polygon-index="3" data-world-points="[[293.96229173548545,-52.31424118992104],[305.24800969000023,-55.22500486136967],[294.21363219175794,-55.77340643842185],[293.96229173548545,-55.70858179259676]]"/><polygon points="904.568414,460.621620 904.568414,503.495598 765.192991,467.548491" fill="url(#mat_tuffaceous_mudstone)" stroke="none" data-interval="I0020" data-polygon-index="0" data-world-points="[[305.24800969000023,-55.22500486136967],[305.24800969000023,-58.61934546404539],[294.21363219175794,-55.77340643842185]]"/><polygon points="904.568414,460.621620 1199.850782,536.779574 1199.850782,574.790248 1187.322531,576.422320 904.568414,503.495598" fill="url(#mat_tuffaceous_mudstone)" stroke="none" data-interval="I0020" data-polygon-index="1" data-world-points="[[305.24800969000023,-55.22500486136967],[328.62556831006646,-61.25444389508469],[328.62556831006646,-64.26375579182299],[327.6337044177851,-64.39296724303988],[305.24800969000023,-58.61934546404539]]"/><polygon points="1199.850782,574.790248 1199.850782,536.779574 1359.876458,553.943486" fill="url(#mat_tuffaceous_mudstone)" stroke="none" data-interval="I0020" data-polygon-index="2" data-world-points="[[328.62556831006646,-64.26375579182299],[328.62556831006646,-61.25444389508469],[341.2948300973872,-62.613313917564184]]"/><polygon points="1199.850782,574.790248 1199.850782,579.653552 1187.322531,576.422320" fill="url(#mat_argillaceous_siltstone)" stroke="none" data-interval="I0021" data-polygon-index="0" data-world-points="[[328.62556831006646,-64.26375579182299],[328.62556831006646,-64.64878449776042],[327.6337044177851,-64.39296724303988]]"/><polygon points="1199.850782,574.790248 1359.876458,553.943486 1359.876458,596.817464 1199.850782,579.653552" fill="url(#mat_argillaceous_siltstone)" stroke="none" data-interval="I0021" data-polygon-index="1" data-world-points="[[328.62556831006646,-64.26375579182299],[341.2948300973872,-62.613313917564184],[341.2948300973872,-66.00765452023991],[328.62556831006646,-64.64878449776042]]"/><polygon points="1359.876458,553.943486 1778.405150,598.833718 1778.405150,641.707696 1359.876458,596.817464" fill="url(#mat_argillaceous_siltstone)" stroke="none" data-interval="I0021" data-polygon-index="2" data-world-points="[[341.2948300973872,-62.613313917564184],[374.4298224642262,-66.1672816686644],[374.4298224642262,-69.56162227134013],[341.2948300973872,-66.00765452023991]]"/><polygon points="1778.405150,598.833718 1834.710023,604.338047 1834.710023,647.212025 1778.405150,641.707696" fill="url(#mat_argillaceous_siltstone)" stroke="none" data-interval="I0021" data-polygon-index="3" data-world-points="[[374.4298224642262,-66.1672816686644],[378.8874894879225,-66.60306038240269],[378.8874894879225,-69.99740098507841],[374.4298224642262,-69.56162227134013]]"/><polygon points="1834.710023,604.338047 1867.583604,651.608501 1838.981504,653.354186 1834.710023,647.212025" fill="url(#mat_argillaceous_siltstone)" stroke="none" data-interval="I0021" data-polygon-index="4" data-world-points="[[378.8874894879225,-66.60306038240269],[381.49009686344584,-70.34547081712236],[379.2256634184092,-70.48367703966356],[378.8874894879225,-69.99740098507841]]"/><line x1="-2091.468861" y1="-168.756271" x2="-2217.424583" y2="-144.021403" class="derived-contact" data-contact="LC0001" data-segment-index="0" data-world-segment="[[68.05119567122254,-5.397043142587258],[58.07925832513364,-7.355307142806323]]"/><line x1="-2065.379117" y1="-173.879709" x2="-2091.468861" y2="-168.756271" class="derived-contact" data-contact="LC0001" data-segment-index="1" data-world-segment="[[70.11672543991357,-4.9914195965272885],[68.05119567122254,-5.397043142587258]]"/><line x1="-1908.840653" y1="-130.566904" x2="-1982.203866" y2="-113.457689" class="derived-contact" data-contact="LC0002" data-segment-index="0" data-world-segment="[[82.50990405205971,-8.42050224134092],[76.70172513679015,-9.775041894082888]]"/><line x1="-1878.892703" y1="-137.551139" x2="-1908.840653" y2="-130.566904" class="derived-contact" data-contact="LC0002" data-segment-index="1" data-world-segment="[[84.88088864934272,-7.867559107200008],[82.50990405205971,-8.42050224134092]]"/><line x1="-1643.302166" y1="-111.570707" x2="-1785.976185" y2="-84.430522" class="derived-contact" data-contact="LC0003" data-segment-index="0" data-world-segment="[[103.53263414796905,-9.92443463604474],[92.237106195582,-12.073128013244556]]"/><line x1="-1422.911800" y1="-72.708976" x2="-1533.023779" y2="-54.644183" class="derived-contact" data-contact="LC0004" data-segment-index="0" data-world-segment="[[120.98097938864312,-13.001124927542822],[112.26339404330585,-14.431317860325763]]"/><line x1="-1167.857908" y1="-15.243119" x2="-1332.633909" y2="-9.494605" class="derived-contact" data-contact="LC0005" data-segment-index="0" data-world-segment="[[141.1736421911591,-17.550707182416396],[128.12829637668122,-18.00581810514902]]"/><line x1="-1039.357475" y1="13.709144" x2="-1140.916697" y2="33.700947" class="derived-contact" data-contact="LC0006" data-segment-index="0" data-world-segment="[[151.34704482448777,-19.842863127619875],[143.30658278708302,-21.42561782089273]]"/><line x1="-1039.357475" y1="43.365340" x2="-1066.449797" y2="50.478987" class="derived-contact" data-contact="LC0007" data-segment-index="0" data-world-segment="[[151.34704482448777,-22.19074951796004],[149.20214075641567,-22.75393822034556]]"/><line x1="-984.842139" y1="29.051217" x2="-1039.357475" y2="43.365340" class="derived-contact" data-contact="LC0007" data-segment-index="1" data-world-segment="[[155.6630338204454,-21.057497789677218],[151.34704482448777,-22.19074951796004]]"/><line x1="-979.053371" y1="27.531256" x2="-984.842139" y2="29.051217" class="derived-contact" data-contact="LC0007" data-segment-index="2" data-world-segment="[[156.12133164009578,-20.937162265959834],[155.6630338204454,-21.057497789677218]]"/><line x1="-979.053371" y1="70.361374" x2="-979.136364" y2="70.383165" class="derived-contact" data-contact="LC0008" data-segment-index="0" data-world-segment="[[156.12133164009578,-24.328030405675303],[156.11476107765247,-24.32975564205835]]"/><line x1="-898.010618" y1="49.081931" x2="-979.053371" y2="70.361374" class="derived-contact" data-contact="LC0008" data-segment-index="1" data-world-segment="[[162.537501115201,-22.6433330736319],[156.12133164009578,-24.328030405675303]]"/><line x1="-805.390328" y1="110.207760" x2="-820.214140" y2="112.643342" class="derived-contact" data-contact="LC0009" data-segment-index="0" data-world-segment="[[169.870266229607,-27.48267604091911],[168.6966623597065,-27.675501535421024]]"/><line x1="-679.689653" y1="89.554884" x2="-805.390328" y2="110.207760" class="derived-contact" data-contact="LC0009" data-segment-index="1" data-world-segment="[[179.8220114715557,-25.8475841273261],[169.870266229607,-27.48267604091911]]"/><line x1="-501.613696" y1="112.000000" x2="-657.926962" y2="135.171883" class="derived-contact" data-contact="LC0010" data-segment-index="0" data-world-segment="[[193.92031723098296,-27.62456800287621],[181.54496767576003,-29.45909021395388]]"/><line x1="190.560000" y1="230.526857" x2="53.082551" y2="247.162472" class="derived-contact" data-contact="LC0011" data-segment-index="0" data-world-segment="[[248.71983419152048,-37.008360730240355],[237.8357196538151,-38.32540542627586]]"/><line x1="328.466449" y1="256.847096" x2="204.949785" y2="276.147208" class="derived-contact" data-contact="LC0012" data-segment-index="0" data-world-segment="[[259.6379127316985,-39.092138862243516],[249.85907610064646,-40.62013220855617]]"/><line x1="533.070825" y1="329.865500" x2="489.064608" y2="345.222825" class="derived-contact" data-contact="LC0013" data-segment-index="0" data-world-segment="[[275.8364783024846,-44.873019146174435],[272.3524980940573,-46.08886130467909]]"/><line x1="533.070825" y1="338.725932" x2="495.551156" y2="349.278799" class="derived-contact" data-contact="LC0014" data-segment-index="0" data-world-segment="[[275.8364783024846,-45.574501117661114],[272.8660393025814,-46.40997355470892]]"/><line x1="542.844592" y1="335.976940" x2="533.070825" y2="338.725932" class="derived-contact" data-contact="LC0014" data-segment-index="1" data-world-segment="[[276.6102691661041,-45.35686293737377],[275.8364783024846,-45.574501117661114]]"/><line x1="629.650346" y1="389.715939" x2="574.522284" y2="398.636540" class="derived-contact" data-contact="LC0015" data-segment-index="0" data-world-segment="[[283.4826964920075,-49.61138920929017],[279.1181978229868,-50.31763480647655]]"/><line x1="629.650346" y1="402.267226" x2="590.212669" y2="408.300249" class="derived-contact" data-contact="LC0016" data-segment-index="0" data-world-segment="[[283.4826964920075,-50.60507687097765],[280.3604084385356,-51.08271240293091]]"/><line x1="660.196798" y1="397.594348" x2="629.650346" y2="402.267226" class="derived-contact" data-contact="LC0016" data-segment-index="1" data-world-segment="[[285.90106462511784,-50.235124281743445],[283.4826964920075,-50.60507687097765]]"/><line x1="629.650346" y1="406.720630" x2="591.909480" y2="409.345315" class="derived-contact" data-contact="LC0017" data-segment-index="0" data-world-segment="[[283.4826964920075,-50.95765365381526],[280.49474524139373,-51.16545044828293]]"/><line x1="660.196798" y1="404.596279" x2="629.650346" y2="406.720630" class="derived-contact" data-contact="LC0017" data-segment-index="1" data-world-segment="[[285.90106462511784,-50.789468464783184],[283.4826964920075,-50.95765365381526]]"/><line x1="681.579315" y1="403.109234" x2="660.196798" y2="404.596279" class="derived-contact" data-contact="LC0017" data-segment-index="2" data-world-segment="[[287.59392231829503,-50.67173883246074],[285.90106462511784,-50.789468464783184]]"/><line x1="660.196798" y1="431.332583" x2="632.625258" y2="433.357193" class="derived-contact" data-contact="LC0018" data-segment-index="0" data-world-segment="[[285.90106462511784,-52.90618645464219],[283.7182207566298,-53.066475213895146]]"/><line x1="681.579315" y1="429.762440" x2="660.196798" y2="431.332583" class="derived-contact" data-contact="LC0018" data-segment-index="1" data-world-segment="[[287.59392231829503,-52.78187794905076],[285.90106462511784,-52.90618645464219]]"/><line x1="762.018305" y1="423.855711" x2="681.579315" y2="429.762440" class="derived-contact" data-contact="LC0018" data-segment-index="2" data-world-segment="[[293.96229173548545,-52.31424118992104],[287.59392231829503,-52.78187794905076]]"/><line x1="904.568414" y1="460.621620" x2="765.192991" y2="467.548491" class="derived-contact" data-contact="LC0019" data-segment-index="0" data-world-segment="[[305.24800969000023,-55.22500486136967],[294.21363219175794,-55.77340643842185]]"/><line x1="1199.850782" y1="574.790248" x2="1187.322531" y2="576.422320" class="derived-contact" data-contact="LC0020" data-segment-index="0" data-world-segment="[[328.62556831006646,-64.26375579182299],[327.6337044177851,-64.39296724303988]]"/><line x1="1359.876458" y1="553.943486" x2="1199.850782" y2="574.790248" class="derived-contact" data-contact="LC0020" data-segment-index="1" data-world-segment="[[341.2948300973872,-62.613313917564184],[328.62556831006646,-64.26375579182299]]"/><line x1="1867.583604" y1="651.608501" x2="1838.981504" y2="653.354186" class="derived-contact" data-contact="LC0021" data-segment-index="0" data-world-segment="[[381.49009686344584,-70.34547081712236],[379.2256634184092,-70.48367703966356]]"/><line x1="2052.078704" y1="847.294655" x2="1997.121151" y2="850.648905" class="derived-contact" data-contact="LC0022" data-segment-index="0" data-world-segment="[[396.09660734300087,-85.83797909271479],[391.7456079000763,-86.10353567094126]]"/><line x1="2052.078704" y1="866.180059" x2="2021.329205" y2="868.056807" class="derived-contact" data-contact="LC0023" data-segment-index="0" data-world-segment="[[396.09660734300087,-87.33313993020423],[393.66216393628287,-87.48172245002625]]"/><line x1="2076.286758" y1="864.702557" x2="2052.078704" y2="866.180059" class="derived-contact" data-contact="LC0023" data-segment-index="1" data-world-segment="[[398.0131633792074,-87.21616587179979],[396.09660734300087,-87.33313993020423]]"/><line x1="2221.535083" y1="969.149971" x2="2169.503784" y2="974.608477" class="derived-contact" data-contact="LC0024" data-segment-index="0" data-world-segment="[[409.5124995964467,-95.48528654630977],[405.3931722379996,-95.91743747287676]]"/><line x1="2557.151901" y1="1182.274140" x2="2456.125158" y2="1192.872667" class="derived-contact" data-contact="LC0025" data-segment-index="0" data-world-segment="[[436.0833438977096,-112.35836563629309],[428.0850383688397,-113.19745290576661]]"/><polyline points="-2951.024752,-236.926421 -2415.153222,-198.686886 -2091.468861,-179.384038 -2065.379117,-173.879709 -1908.840653,-140.853736 -1878.892703,-137.551139 -1643.302166,-111.570707 -1549.465257,-101.222568 -1422.911800,-72.708976 -1167.857908,-15.243119 -1039.357475,13.709144 -984.842139,25.991923 -979.053371,27.531256 -898.010618,49.081931 -805.390328,73.711273 -679.689653,89.554884 -501.613696,112.000000 -292.112571,138.406018 190.560000,230.526857 328.466449,256.847096 454.880693,280.973982 533.070825,329.865500 542.844592,335.976940 572.165891,354.311259 629.650346,389.715939 660.196798,397.594348 681.579315,403.109234 762.018305,423.855711 904.568414,460.621620 1199.850782,536.779574 1359.876458,553.943486 1778.405150,598.833718 1834.710023,604.338047 1867.583604,651.608501 1955.246487,777.663046 2052.078704,847.294655 2076.286758,864.702557 2221.535083,969.149971 2269.951191,1003.965776 2399.245239,1131.827014 2557.151901,1182.274140 2708.193056,1230.527912 2871.561880,1327.348315 3103.520702,1373.053662" class="survey" data-node-count="44"/><circle cx="-2951.024752" cy="-236.926421" r="2.4" fill="#15202b" data-node="0"/><circle cx="-2415.153222" cy="-198.686886" r="2.4" fill="#15202b" data-node="1"/><circle cx="-2091.468861" cy="-179.384038" r="2.4" fill="#15202b" data-node="2"/><circle cx="-2065.379117" cy="-173.879709" r="2.4" fill="#15202b" data-node="3"/><circle cx="-1908.840653" cy="-140.853736" r="2.4" fill="#15202b" data-node="4"/><circle cx="-1878.892703" cy="-137.551139" r="2.4" fill="#15202b" data-node="5"/><circle cx="-1643.302166" cy="-111.570707" r="2.4" fill="#15202b" data-node="6"/><circle cx="-1549.465257" cy="-101.222568" r="2.4" fill="#15202b" data-node="7"/><circle cx="-1422.911800" cy="-72.708976" r="2.4" fill="#15202b" data-node="8"/><circle cx="-1167.857908" cy="-15.243119" r="2.4" fill="#15202b" data-node="9"/><circle cx="-1039.357475" cy="13.709144" r="2.4" fill="#15202b" data-node="10"/><circle cx="-984.842139" cy="25.991923" r="2.4" fill="#15202b" data-node="11"/><circle cx="-979.053371" cy="27.531256" r="2.4" fill="#15202b" data-node="12"/><circle cx="-898.010618" cy="49.081931" r="2.4" fill="#15202b" data-node="13"/><circle cx="-805.390328" cy="73.711273" r="2.4" fill="#15202b" data-node="14"/><circle cx="-679.689653" cy="89.554884" r="2.4" fill="#15202b" data-node="15"/><circle cx="-501.613696" cy="112.000000" r="2.4" fill="#15202b" data-node="16"/><circle cx="-292.112571" cy="138.406018" r="2.4" fill="#15202b" data-node="17"/><circle cx="190.560000" cy="230.526857" r="2.4" fill="#15202b" data-node="18"/><circle cx="328.466449" cy="256.847096" r="2.4" fill="#15202b" data-node="19"/><circle cx="454.880693" cy="280.973982" r="2.4" fill="#15202b" data-node="20"/><circle cx="533.070825" cy="329.865500" r="2.4" fill="#15202b" data-node="21"/><circle cx="542.844592" cy="335.976940" r="2.4" fill="#15202b" data-node="22"/><circle cx="572.165891" cy="354.311259" r="2.4" fill="#15202b" data-node="23"/><circle cx="629.650346" cy="389.715939" r="2.4" fill="#15202b" data-node="24"/><circle cx="660.196798" cy="397.594348" r="2.4" fill="#15202b" data-node="25"/><circle cx="681.579315" cy="403.109234" r="2.4" fill="#15202b" data-node="26"/><circle cx="762.018305" cy="423.855711" r="2.4" fill="#15202b" data-node="27"/><circle cx="904.568414" cy="460.621620" r="2.4" fill="#15202b" data-node="28"/><circle cx="1199.850782" cy="536.779574" r="2.4" fill="#15202b" data-node="29"/><circle cx="1359.876458" cy="553.943486" r="2.4" fill="#15202b" data-node="30"/><circle cx="1778.405150" cy="598.833718" r="2.4" fill="#15202b" data-node="31"/><circle cx="1834.710023" cy="604.338047" r="2.4" fill="#15202b" data-node="32"/><circle cx="1867.583604" cy="651.608501" r="2.4" fill="#15202b" data-node="33"/><circle cx="1955.246487" cy="777.663046" r="2.4" fill="#15202b" data-node="34"/><circle cx="2052.078704" cy="847.294655" r="2.4" fill="#15202b" data-node="35"/><circle cx="2076.286758" cy="864.702557" r="2.4" fill="#15202b" data-node="36"/><circle cx="2221.535083" cy="969.149971" r="2.4" fill="#15202b" data-node="37"/><circle cx="2269.951191" cy="1003.965776" r="2.4" fill="#15202b" data-node="38"/><circle cx="2399.245239" cy="1131.827014" r="2.4" fill="#15202b" data-node="39"/><circle cx="2557.151901" cy="1182.274140" r="2.4" fill="#15202b" data-node="40"/><circle cx="2708.193056" cy="1230.527912" r="2.4" fill="#15202b" data-node="41"/><circle cx="2871.561880" cy="1327.348315" r="2.4" fill="#15202b" data-node="42"/><circle cx="3103.520702" cy="1373.053662" r="2.4" fill="#15202b" data-node="43"/></g><path d="M 190.560 230.527 L 137.280 683.354" class="leader" data-interval="I0011"/><path d="M 204.950 276.147 L 206.233 683.354" class="leader" data-interval="I0012"/><path d="M 328.466 299.721 L 369.010 683.354" class="leader" data-interval="I0013"/><path d="M 533.071 338.726 L 515.955 683.354" class="leader" data-interval="I0014"/><path d="M 572.166 397.185 L 562.601 683.354" class="leader" data-interval="I0015"/><path d="M 629.650 402.267 L 617.360 683.354" class="leader" data-interval="I0016"/><path d="M 629.650 406.721 L 635.896 704.354" class="leader" data-interval="I0017"/><path d="M 681.579 429.762 L 676.964 683.354" class="leader" data-interval="I0018"/><path d="M 765.193 467.548 L 768.597 683.354" class="leader" data-interval="I0019"/><path d="M 1187.323 576.422 L 1062.535 683.354" class="leader" data-interval="I0020"/><path d="M 1359.876 596.817 L 1301.661 683.354" class="leader" data-interval="I0021"/><rect x="118.190" y="671.354" width="38.180" height="20.000" rx="2.5" fill="#ffffff" fill-opacity=".94"/><text x="137.280" y="687.354" class="small" text-anchor="middle" data-interval="I0011">C10</text><rect x="187.143" y="671.354" width="38.180" height="20.000" rx="2.5" fill="#ffffff" fill-opacity=".94"/><text x="206.233" y="687.354" class="small" text-anchor="middle" data-interval="I0012">C11</text><rect x="349.920" y="671.354" width="38.180" height="20.000" rx="2.5" fill="#ffffff" fill-opacity=".94"/><text x="369.010" y="687.354" class="small" text-anchor="middle" data-interval="I0013">C12</text><rect x="496.865" y="671.354" width="38.180" height="20.000" rx="2.5" fill="#ffffff" fill-opacity=".94"/><text x="515.955" y="687.354" class="small" text-anchor="middle" data-interval="I0014">C13</text><rect x="543.511" y="671.354" width="38.180" height="20.000" rx="2.5" fill="#ffffff" fill-opacity=".94"/><text x="562.601" y="687.354" class="small" text-anchor="middle" data-interval="I0015">C14</text><rect x="598.270" y="671.354" width="38.180" height="20.000" rx="2.5" fill="#ffffff" fill-opacity=".94"/><text x="617.360" y="687.354" class="small" text-anchor="middle" data-interval="I0016">C15</text><rect x="616.806" y="692.354" width="38.180" height="20.000" rx="2.5" fill="#ffffff" fill-opacity=".94"/><text x="635.896" y="708.354" class="small" text-anchor="middle" data-interval="I0017">C16</text><rect x="657.874" y="671.354" width="38.180" height="20.000" rx="2.5" fill="#ffffff" fill-opacity=".94"/><text x="676.964" y="687.354" class="small" text-anchor="middle" data-interval="I0018">C17</text><rect x="749.507" y="671.354" width="38.180" height="20.000" rx="2.5" fill="#ffffff" fill-opacity=".94"/><text x="768.597" y="687.354" class="small" text-anchor="middle" data-interval="I0019">C18</text><rect x="1043.445" y="671.354" width="38.180" height="20.000" rx="2.5" fill="#ffffff" fill-opacity=".94"/><text x="1062.535" y="687.354" class="small" text-anchor="middle" data-interval="I0020">C19</text><rect x="1282.571" y="671.354" width="38.180" height="20.000" rx="2.5" fill="#ffffff" fill-opacity=".94"/><text x="1301.661" y="687.354" class="small" text-anchor="middle" data-interval="I0021">C20</text><g class="scale"><line x1="84.000" y1="771.354" x2="210.310" y2="771.354"/><line x1="84.000" y1="766.354" x2="84.000" y2="776.354"/><line x1="210.310" y1="766.354" x2="210.310" y2="776.354"/><text x="147.155" y="763.354" class="small" text-anchor="middle" >10 m</text></g><text x="314.000" y="776.354" class="small" text-anchor="start" >数据核验图；项目自定义岩性图案，行业图式尚未逐项核验；显示深度不代表真厚度。</text></svg>